<svg width="400" height="400" viewBox="0 0 400 400" fill="none" xmlns="http://www.w3.org/2000/svg">
<rect width="400" height="400" rx="200" fill="black"/>
<path d="M184.241 141.8C186.441 141.8 187.241 142.3 186.641 143.3C186.041 144.1 185.141 144.5 183.941 144.5C181.341 144.5 177.941 145.3 173.741 146.9C169.741 148.3 165.741 150.5 161.741 153.5C157.741 156.3 154.341 159.9 151.541 164.3C148.741 168.7 147.341 173.9 147.341 179.9C147.341 187.3 149.141 193.6 152.741 198.8C156.341 204 161.841 208 169.241 210.8C176.641 213.4 185.841 214.7 196.841 214.7C206.641 214.7 217.141 212.9 228.341 209.3C239.741 205.5 250.941 200.5 261.941 194.3C273.141 187.9 283.341 180.8 292.541 173C301.741 165.2 309.041 157.2 314.441 149C320.041 140.6 322.841 132.6 322.841 125C322.841 122.8 321.641 120.6 319.241 118.4C317.041 116.2 313.941 115.1 309.941 115.1C300.941 115.1 292.641 117.4 285.041 122C277.441 126.6 270.141 133 263.141 141.2C256.141 149.2 249.041 158.5 241.841 169.1C234.841 179.7 227.441 191 219.641 203C214.641 210.6 208.741 218.6 201.941 227C195.341 235.2 187.741 243 179.141 250.4C170.541 257.6 160.841 263.5 150.041 268.1C139.441 272.5 127.541 274.7 114.341 274.7C96.9406 274.7 88.2406 271.1 88.2406 263.9C88.2406 261.7 90.4406 259.4 94.8406 257C99.0406 254.4 105.441 253.1 114.041 253.1C122.241 253.1 129.441 254.1 135.641 256.1C141.841 257.9 148.141 260 154.541 262.4C161.141 264.8 168.841 267 177.641 269C186.441 270.8 197.541 271.7 210.941 271.7C216.941 271.7 223.541 270.8 230.741 269C237.941 267 243.241 263.8 246.641 259.4C247.441 258.4 248.241 258 249.041 258.2C249.841 258.4 249.741 259.3 248.741 260.9C246.341 264.3 241.841 267.9 235.241 271.7C228.841 275.3 220.441 277.1 210.041 277.1C202.041 277.1 193.641 276.2 184.841 274.4C176.041 272.6 167.341 270.5 158.741 268.1C150.141 265.5 142.041 263.3 134.441 261.5C126.841 259.7 120.141 258.8 114.341 258.8C107.341 258.8 101.841 259.4 97.8406 260.6C93.6406 261.6 91.5406 262.7 91.5406 263.9C91.5406 266.1 93.7406 268 98.1406 269.6C102.341 271 107.841 271.7 114.641 271.7C125.441 271.7 135.041 269.7 143.441 265.7C151.841 261.5 159.541 256 166.541 249.2C173.541 242.2 180.141 234.3 186.341 225.5C192.741 216.7 199.141 207.7 205.541 198.5C213.941 186.1 222.241 174.7 230.441 164.3C238.641 153.9 247.041 144.8 255.641 137C264.241 129.2 273.241 123.2 282.641 119C292.241 114.6 302.541 112.4 313.541 112.4C317.541 112.4 321.341 113.5 324.941 115.7C328.741 117.9 330.641 121.5 330.641 126.5C330.641 133.7 327.641 141.5 321.641 149.9C315.841 158.1 308.041 166.2 298.241 174.2C288.641 182.2 277.841 189.5 265.841 196.1C254.041 202.7 242.141 208 230.141 212C218.141 215.8 206.941 217.7 196.541 217.7C181.941 217.7 170.441 215.9 162.041 212.3C153.641 208.7 147.641 204.2 144.041 198.8C140.641 193.4 138.941 188.1 138.941 182.9C138.941 176.3 141.041 169.9 145.241 163.7C149.641 157.3 155.241 152.1 162.041 148.1C169.041 143.9 176.441 141.8 184.241 141.8Z" fill="white"/>
</svg>
